<svg width="14" height="14" viewBox="0 0 14 14" fill="none" xmlns="http://www.w3.org/2000/svg">
<path d="M6.36742 2.26562H2.19276C1.87642 2.26563 1.57304 2.39129 1.34935 2.61498C1.12567 2.83866 1 3.14205 1 3.45839V11.8077C1 12.124 1.12567 12.4274 1.34935 12.6511C1.57304 12.8748 1.87642 13.0005 2.19276 13.0005H10.5421C10.8584 13.0005 11.1618 12.8748 11.3855 12.6511C11.6092 12.4274 11.7348 12.124 11.7348 11.8077V7.63305" stroke="#0496FF"/>
<path d="M10.8407 1.37054C11.078 1.13329 11.3998 1 11.7353 1C12.0708 1 12.3926 1.13329 12.6299 1.37054C12.8671 1.6078 13.0004 1.92958 13.0004 2.26511C13.0004 2.60064 12.8671 2.92243 12.6299 3.15968L7.21204 8.57751C7.0499 8.73965 6.84675 8.85467 6.6243 8.91028V8.91028C5.69776 9.14192 4.85849 8.30265 5.09013 7.37611V7.37611C5.14574 7.15366 5.26076 6.95051 5.4229 6.78837L10.8407 1.37054Z" stroke="#0496FF"/>
</svg>
